<mxfile host="app.diagrams.net" modified="2024-01-22T13:08:42.051Z" agent="Mozilla/5.0 (Windows NT 10.0; Win64; x64) AppleWebKit/537.36 (KHTML, like Gecko) Chrome/120.0.0.0 Safari/537.36" etag="PbSt9fO6KNEFnupibfO-" version="22.1.21" type="github">
  <diagram id="C5RBs43oDa-KdzZeNtuy" name="Page-1">
    <mxGraphModel dx="1816" dy="1683" grid="1" gridSize="10" guides="1" tooltips="1" connect="1" arrows="1" fold="1" page="1" pageScale="1" pageWidth="827" pageHeight="1169" math="0" shadow="0">
      <root>
        <mxCell id="WIyWlLk6GJQsqaUBKTNV-0" />
        <mxCell id="WIyWlLk6GJQsqaUBKTNV-1" parent="WIyWlLk6GJQsqaUBKTNV-0" />
        <mxCell id="NiWgMLImOr7ihuLmJWnc-22" value="" style="edgeStyle=orthogonalEdgeStyle;rounded=0;orthogonalLoop=1;jettySize=auto;html=1;entryX=0.464;entryY=-0.004;entryDx=0;entryDy=0;entryPerimeter=0;" edge="1" parent="WIyWlLk6GJQsqaUBKTNV-1" source="NiWgMLImOr7ihuLmJWnc-37" target="NiWgMLImOr7ihuLmJWnc-21">
          <mxGeometry relative="1" as="geometry">
            <mxPoint x="150" y="20" as="sourcePoint" />
            <mxPoint x="-30" y="220" as="targetPoint" />
            <Array as="points">
              <mxPoint x="-24" y="90" />
            </Array>
          </mxGeometry>
        </mxCell>
        <mxCell id="NiWgMLImOr7ihuLmJWnc-134" value="" style="edgeStyle=orthogonalEdgeStyle;rounded=0;orthogonalLoop=1;jettySize=auto;html=1;" edge="1" parent="WIyWlLk6GJQsqaUBKTNV-1" source="WIyWlLk6GJQsqaUBKTNV-3" target="NiWgMLImOr7ihuLmJWnc-133">
          <mxGeometry relative="1" as="geometry" />
        </mxCell>
        <mxCell id="WIyWlLk6GJQsqaUBKTNV-3" value="开始" style="rounded=1;whiteSpace=wrap;html=1;fontSize=12;glass=0;strokeWidth=1;shadow=0;shape=ellipse;aspect=fixed;perimeter=ellipsePerimeter;" parent="WIyWlLk6GJQsqaUBKTNV-1" vertex="1">
          <mxGeometry x="90.5" y="-200" width="120" height="40" as="geometry" />
        </mxCell>
        <mxCell id="NiWgMLImOr7ihuLmJWnc-31" value="" style="edgeStyle=orthogonalEdgeStyle;rounded=0;orthogonalLoop=1;jettySize=auto;html=1;" edge="1" parent="WIyWlLk6GJQsqaUBKTNV-1" source="NiWgMLImOr7ihuLmJWnc-6" target="NiWgMLImOr7ihuLmJWnc-30">
          <mxGeometry relative="1" as="geometry" />
        </mxCell>
        <mxCell id="NiWgMLImOr7ihuLmJWnc-6" value="95306提阶段需求" style="whiteSpace=wrap;html=1;rounded=1;glass=0;strokeWidth=1;shadow=0;" vertex="1" parent="WIyWlLk6GJQsqaUBKTNV-1">
          <mxGeometry x="240" y="120" width="120" height="60" as="geometry" />
        </mxCell>
        <mxCell id="NiWgMLImOr7ihuLmJWnc-24" value="" style="edgeStyle=orthogonalEdgeStyle;rounded=0;orthogonalLoop=1;jettySize=auto;html=1;" edge="1" parent="WIyWlLk6GJQsqaUBKTNV-1" source="NiWgMLImOr7ihuLmJWnc-17" target="NiWgMLImOr7ihuLmJWnc-23">
          <mxGeometry relative="1" as="geometry" />
        </mxCell>
        <mxCell id="NiWgMLImOr7ihuLmJWnc-17" value="通知现场约车皮" style="whiteSpace=wrap;html=1;rounded=1;glass=0;strokeWidth=1;shadow=0;" vertex="1" parent="WIyWlLk6GJQsqaUBKTNV-1">
          <mxGeometry x="90.5" y="190" width="120" height="60" as="geometry" />
        </mxCell>
        <mxCell id="NiWgMLImOr7ihuLmJWnc-21" value="客户准备各种证书，报关资料，随车资料" style="whiteSpace=wrap;html=1;rounded=1;glass=0;strokeWidth=1;shadow=0;" vertex="1" parent="WIyWlLk6GJQsqaUBKTNV-1">
          <mxGeometry x="-80" y="190" width="120" height="60" as="geometry" />
        </mxCell>
        <mxCell id="NiWgMLImOr7ihuLmJWnc-49" value="" style="edgeStyle=orthogonalEdgeStyle;rounded=0;orthogonalLoop=1;jettySize=auto;html=1;" edge="1" parent="WIyWlLk6GJQsqaUBKTNV-1" source="NiWgMLImOr7ihuLmJWnc-23" target="NiWgMLImOr7ihuLmJWnc-48">
          <mxGeometry relative="1" as="geometry" />
        </mxCell>
        <mxCell id="NiWgMLImOr7ihuLmJWnc-23" value="现场约到车皮" style="whiteSpace=wrap;html=1;rounded=1;glass=0;strokeWidth=1;shadow=0;" vertex="1" parent="WIyWlLk6GJQsqaUBKTNV-1">
          <mxGeometry x="90" y="280" width="120" height="60" as="geometry" />
        </mxCell>
        <mxCell id="NiWgMLImOr7ihuLmJWnc-33" value="" style="edgeStyle=orthogonalEdgeStyle;rounded=0;orthogonalLoop=1;jettySize=auto;html=1;" edge="1" parent="WIyWlLk6GJQsqaUBKTNV-1" source="NiWgMLImOr7ihuLmJWnc-30" target="NiWgMLImOr7ihuLmJWnc-32">
          <mxGeometry relative="1" as="geometry" />
        </mxCell>
        <mxCell id="NiWgMLImOr7ihuLmJWnc-30" value="客户准备运单草单" style="whiteSpace=wrap;html=1;rounded=1;glass=0;strokeWidth=1;shadow=0;" vertex="1" parent="WIyWlLk6GJQsqaUBKTNV-1">
          <mxGeometry x="230" y="280" width="120" height="60" as="geometry" />
        </mxCell>
        <mxCell id="NiWgMLImOr7ihuLmJWnc-35" value="" style="edgeStyle=orthogonalEdgeStyle;rounded=0;orthogonalLoop=1;jettySize=auto;html=1;" edge="1" parent="WIyWlLk6GJQsqaUBKTNV-1" source="NiWgMLImOr7ihuLmJWnc-32" target="NiWgMLImOr7ihuLmJWnc-34">
          <mxGeometry relative="1" as="geometry" />
        </mxCell>
        <mxCell id="NiWgMLImOr7ihuLmJWnc-32" value="95306填写运单" style="whiteSpace=wrap;html=1;rounded=1;glass=0;strokeWidth=1;shadow=0;" vertex="1" parent="WIyWlLk6GJQsqaUBKTNV-1">
          <mxGeometry x="230" y="360" width="120" height="60" as="geometry" />
        </mxCell>
        <mxCell id="NiWgMLImOr7ihuLmJWnc-39" value="" style="edgeStyle=orthogonalEdgeStyle;rounded=0;orthogonalLoop=1;jettySize=auto;html=1;" edge="1" parent="WIyWlLk6GJQsqaUBKTNV-1" source="NiWgMLImOr7ihuLmJWnc-34">
          <mxGeometry relative="1" as="geometry">
            <mxPoint x="290" y="520" as="targetPoint" />
          </mxGeometry>
        </mxCell>
        <mxCell id="NiWgMLImOr7ihuLmJWnc-152" style="edgeStyle=orthogonalEdgeStyle;rounded=0;orthogonalLoop=1;jettySize=auto;html=1;entryX=1.015;entryY=0.632;entryDx=0;entryDy=0;entryPerimeter=0;" edge="1" parent="WIyWlLk6GJQsqaUBKTNV-1" source="NiWgMLImOr7ihuLmJWnc-34" target="NiWgMLImOr7ihuLmJWnc-57">
          <mxGeometry relative="1" as="geometry">
            <mxPoint x="290" y="600" as="targetPoint" />
          </mxGeometry>
        </mxCell>
        <mxCell id="NiWgMLImOr7ihuLmJWnc-34" value="客户确认运单" style="whiteSpace=wrap;html=1;rounded=1;glass=0;strokeWidth=1;shadow=0;" vertex="1" parent="WIyWlLk6GJQsqaUBKTNV-1">
          <mxGeometry x="230" y="440" width="120" height="60" as="geometry" />
        </mxCell>
        <mxCell id="NiWgMLImOr7ihuLmJWnc-51" value="" style="edgeStyle=orthogonalEdgeStyle;rounded=0;orthogonalLoop=1;jettySize=auto;html=1;" edge="1" parent="WIyWlLk6GJQsqaUBKTNV-1" source="NiWgMLImOr7ihuLmJWnc-48" target="NiWgMLImOr7ihuLmJWnc-50">
          <mxGeometry relative="1" as="geometry" />
        </mxCell>
        <mxCell id="NiWgMLImOr7ihuLmJWnc-48" value="客户发货" style="whiteSpace=wrap;html=1;rounded=1;glass=0;strokeWidth=1;shadow=0;" vertex="1" parent="WIyWlLk6GJQsqaUBKTNV-1">
          <mxGeometry x="90" y="360" width="120" height="60" as="geometry" />
        </mxCell>
        <mxCell id="NiWgMLImOr7ihuLmJWnc-56" value="" style="edgeStyle=orthogonalEdgeStyle;rounded=0;orthogonalLoop=1;jettySize=auto;html=1;" edge="1" parent="WIyWlLk6GJQsqaUBKTNV-1" source="NiWgMLImOr7ihuLmJWnc-50" target="NiWgMLImOr7ihuLmJWnc-55">
          <mxGeometry relative="1" as="geometry" />
        </mxCell>
        <mxCell id="NiWgMLImOr7ihuLmJWnc-50" value="&lt;br&gt;派车计划" style="whiteSpace=wrap;html=1;rounded=1;glass=0;strokeWidth=1;shadow=0;" vertex="1" parent="WIyWlLk6GJQsqaUBKTNV-1">
          <mxGeometry x="90" y="440" width="120" height="60" as="geometry" />
        </mxCell>
        <mxCell id="NiWgMLImOr7ihuLmJWnc-55" value="装车" style="whiteSpace=wrap;html=1;rounded=1;glass=0;strokeWidth=1;shadow=0;" vertex="1" parent="WIyWlLk6GJQsqaUBKTNV-1">
          <mxGeometry x="90" y="520" width="120" height="60" as="geometry" />
        </mxCell>
        <mxCell id="NiWgMLImOr7ihuLmJWnc-61" value="" style="edgeStyle=orthogonalEdgeStyle;rounded=0;orthogonalLoop=1;jettySize=auto;html=1;" edge="1" parent="WIyWlLk6GJQsqaUBKTNV-1" source="NiWgMLImOr7ihuLmJWnc-57" target="NiWgMLImOr7ihuLmJWnc-60">
          <mxGeometry relative="1" as="geometry" />
        </mxCell>
        <mxCell id="NiWgMLImOr7ihuLmJWnc-57" value="" style="verticalLabelPosition=bottom;verticalAlign=top;html=1;shape=mxgraph.flowchart.parallel_mode;pointerEvents=1" vertex="1" parent="WIyWlLk6GJQsqaUBKTNV-1">
          <mxGeometry x="180" y="680" width="95" height="40" as="geometry" />
        </mxCell>
        <mxCell id="NiWgMLImOr7ihuLmJWnc-59" style="edgeStyle=orthogonalEdgeStyle;rounded=0;orthogonalLoop=1;jettySize=auto;html=1;exitX=0.5;exitY=1;exitDx=0;exitDy=0;entryX=0;entryY=0.5;entryDx=0;entryDy=0;entryPerimeter=0;" edge="1" parent="WIyWlLk6GJQsqaUBKTNV-1" source="NiWgMLImOr7ihuLmJWnc-55" target="NiWgMLImOr7ihuLmJWnc-57">
          <mxGeometry relative="1" as="geometry" />
        </mxCell>
        <mxCell id="NiWgMLImOr7ihuLmJWnc-65" value="" style="edgeStyle=orthogonalEdgeStyle;rounded=0;orthogonalLoop=1;jettySize=auto;html=1;" edge="1" parent="WIyWlLk6GJQsqaUBKTNV-1" source="NiWgMLImOr7ihuLmJWnc-60" target="NiWgMLImOr7ihuLmJWnc-64">
          <mxGeometry relative="1" as="geometry" />
        </mxCell>
        <mxCell id="NiWgMLImOr7ihuLmJWnc-60" value="&lt;br&gt;装车完成" style="rounded=1;whiteSpace=wrap;html=1;verticalAlign=top;" vertex="1" parent="WIyWlLk6GJQsqaUBKTNV-1">
          <mxGeometry x="167.5" y="730" width="120" height="60" as="geometry" />
        </mxCell>
        <mxCell id="NiWgMLImOr7ihuLmJWnc-84" value="" style="edgeStyle=orthogonalEdgeStyle;rounded=0;orthogonalLoop=1;jettySize=auto;html=1;" edge="1" parent="WIyWlLk6GJQsqaUBKTNV-1" source="NiWgMLImOr7ihuLmJWnc-64" target="NiWgMLImOr7ihuLmJWnc-83">
          <mxGeometry relative="1" as="geometry" />
        </mxCell>
        <mxCell id="NiWgMLImOr7ihuLmJWnc-64" value="&lt;br&gt;&lt;br&gt;件数重量是否有变化？" style="rhombus;whiteSpace=wrap;html=1;verticalAlign=top;rounded=1;" vertex="1" parent="WIyWlLk6GJQsqaUBKTNV-1">
          <mxGeometry x="187.5" y="1000" width="80" height="90" as="geometry" />
        </mxCell>
        <mxCell id="NiWgMLImOr7ihuLmJWnc-78" value="" style="edgeStyle=orthogonalEdgeStyle;rounded=0;orthogonalLoop=1;jettySize=auto;html=1;" edge="1" parent="WIyWlLk6GJQsqaUBKTNV-1" source="NiWgMLImOr7ihuLmJWnc-66" target="NiWgMLImOr7ihuLmJWnc-77">
          <mxGeometry relative="1" as="geometry" />
        </mxCell>
        <mxCell id="NiWgMLImOr7ihuLmJWnc-66" value="车站代理报点，96305填写日需求" style="whiteSpace=wrap;html=1;verticalAlign=top;rounded=1;" vertex="1" parent="WIyWlLk6GJQsqaUBKTNV-1">
          <mxGeometry x="167.5" y="810" width="120" height="60" as="geometry" />
        </mxCell>
        <mxCell id="NiWgMLImOr7ihuLmJWnc-68" value="&lt;br&gt;更新运单" style="whiteSpace=wrap;html=1;verticalAlign=top;rounded=1;" vertex="1" parent="WIyWlLk6GJQsqaUBKTNV-1">
          <mxGeometry x="330" y="980" width="120" height="60" as="geometry" />
        </mxCell>
        <mxCell id="NiWgMLImOr7ihuLmJWnc-77" value="日需求订车成功，匹配运单" style="whiteSpace=wrap;html=1;verticalAlign=top;rounded=1;" vertex="1" parent="WIyWlLk6GJQsqaUBKTNV-1">
          <mxGeometry x="167.5" y="910" width="120" height="60" as="geometry" />
        </mxCell>
        <mxCell id="NiWgMLImOr7ihuLmJWnc-80" style="edgeStyle=orthogonalEdgeStyle;rounded=0;orthogonalLoop=1;jettySize=auto;html=1;entryX=0.39;entryY=1.071;entryDx=0;entryDy=0;entryPerimeter=0;" edge="1" parent="WIyWlLk6GJQsqaUBKTNV-1" source="NiWgMLImOr7ihuLmJWnc-64" target="NiWgMLImOr7ihuLmJWnc-68">
          <mxGeometry relative="1" as="geometry" />
        </mxCell>
        <mxCell id="NiWgMLImOr7ihuLmJWnc-81" value="no" style="edgeLabel;html=1;align=center;verticalAlign=middle;resizable=0;points=[];" vertex="1" connectable="0" parent="NiWgMLImOr7ihuLmJWnc-80">
          <mxGeometry x="-0.2819" relative="1" as="geometry">
            <mxPoint as="offset" />
          </mxGeometry>
        </mxCell>
        <mxCell id="NiWgMLImOr7ihuLmJWnc-82" value="" style="verticalLabelPosition=bottom;verticalAlign=top;html=1;shape=mxgraph.flowchart.parallel_mode;pointerEvents=1" vertex="1" parent="WIyWlLk6GJQsqaUBKTNV-1">
          <mxGeometry x="102.5" y="140" width="95" height="40" as="geometry" />
        </mxCell>
        <mxCell id="NiWgMLImOr7ihuLmJWnc-83" value="运单提交，发车&lt;br&gt;" style="whiteSpace=wrap;html=1;verticalAlign=top;rounded=1;" vertex="1" parent="WIyWlLk6GJQsqaUBKTNV-1">
          <mxGeometry x="167.5" y="1110" width="120" height="60" as="geometry" />
        </mxCell>
        <mxCell id="NiWgMLImOr7ihuLmJWnc-90" value="" style="edgeStyle=orthogonalEdgeStyle;rounded=0;orthogonalLoop=1;jettySize=auto;html=1;" edge="1" parent="WIyWlLk6GJQsqaUBKTNV-1" source="NiWgMLImOr7ihuLmJWnc-87" target="NiWgMLImOr7ihuLmJWnc-89">
          <mxGeometry relative="1" as="geometry" />
        </mxCell>
        <mxCell id="NiWgMLImOr7ihuLmJWnc-92" value="" style="edgeStyle=orthogonalEdgeStyle;rounded=0;orthogonalLoop=1;jettySize=auto;html=1;" edge="1" parent="WIyWlLk6GJQsqaUBKTNV-1" source="NiWgMLImOr7ihuLmJWnc-87" target="NiWgMLImOr7ihuLmJWnc-91">
          <mxGeometry relative="1" as="geometry" />
        </mxCell>
        <mxCell id="NiWgMLImOr7ihuLmJWnc-87" value="" style="verticalLabelPosition=bottom;verticalAlign=top;html=1;shape=mxgraph.flowchart.parallel_mode;pointerEvents=1" vertex="1" parent="WIyWlLk6GJQsqaUBKTNV-1">
          <mxGeometry x="181" y="1200" width="95" height="40" as="geometry" />
        </mxCell>
        <mxCell id="NiWgMLImOr7ihuLmJWnc-88" style="edgeStyle=orthogonalEdgeStyle;rounded=0;orthogonalLoop=1;jettySize=auto;html=1;exitX=0.5;exitY=1;exitDx=0;exitDy=0;entryX=0.5;entryY=0;entryDx=0;entryDy=0;entryPerimeter=0;" edge="1" parent="WIyWlLk6GJQsqaUBKTNV-1" source="NiWgMLImOr7ihuLmJWnc-83" target="NiWgMLImOr7ihuLmJWnc-87">
          <mxGeometry relative="1" as="geometry" />
        </mxCell>
        <mxCell id="NiWgMLImOr7ihuLmJWnc-95" value="" style="edgeStyle=orthogonalEdgeStyle;rounded=0;orthogonalLoop=1;jettySize=auto;html=1;" edge="1" parent="WIyWlLk6GJQsqaUBKTNV-1" source="NiWgMLImOr7ihuLmJWnc-89" target="NiWgMLImOr7ihuLmJWnc-94">
          <mxGeometry relative="1" as="geometry" />
        </mxCell>
        <mxCell id="NiWgMLImOr7ihuLmJWnc-89" value="收到盖章运单" style="rounded=1;whiteSpace=wrap;html=1;verticalAlign=top;" vertex="1" parent="WIyWlLk6GJQsqaUBKTNV-1">
          <mxGeometry x="300" y="1190" width="120" height="60" as="geometry" />
        </mxCell>
        <mxCell id="NiWgMLImOr7ihuLmJWnc-91" value="G3基础信息，装箱信息填报，通知操作跟踪" style="whiteSpace=wrap;html=1;verticalAlign=top;" vertex="1" parent="WIyWlLk6GJQsqaUBKTNV-1">
          <mxGeometry x="40" y="1190" width="120" height="60" as="geometry" />
        </mxCell>
        <mxCell id="NiWgMLImOr7ihuLmJWnc-148" value="" style="edgeStyle=orthogonalEdgeStyle;rounded=0;orthogonalLoop=1;jettySize=auto;html=1;" edge="1" parent="WIyWlLk6GJQsqaUBKTNV-1" source="NiWgMLImOr7ihuLmJWnc-37" target="NiWgMLImOr7ihuLmJWnc-6">
          <mxGeometry relative="1" as="geometry" />
        </mxCell>
        <mxCell id="NiWgMLImOr7ihuLmJWnc-37" value="" style="verticalLabelPosition=bottom;verticalAlign=top;html=1;shape=mxgraph.flowchart.parallel_mode;pointerEvents=1" vertex="1" parent="WIyWlLk6GJQsqaUBKTNV-1">
          <mxGeometry x="102.5" y="70" width="95" height="40" as="geometry" />
        </mxCell>
        <mxCell id="NiWgMLImOr7ihuLmJWnc-102" value="" style="edgeStyle=orthogonalEdgeStyle;rounded=0;orthogonalLoop=1;jettySize=auto;html=1;" edge="1" parent="WIyWlLk6GJQsqaUBKTNV-1" source="NiWgMLImOr7ihuLmJWnc-94" target="NiWgMLImOr7ihuLmJWnc-101">
          <mxGeometry relative="1" as="geometry" />
        </mxCell>
        <mxCell id="NiWgMLImOr7ihuLmJWnc-94" value="付款，申请运费付款" style="rounded=1;whiteSpace=wrap;html=1;verticalAlign=top;" vertex="1" parent="WIyWlLk6GJQsqaUBKTNV-1">
          <mxGeometry x="187.5" y="1330" width="120" height="60" as="geometry" />
        </mxCell>
        <mxCell id="NiWgMLImOr7ihuLmJWnc-100" value="" style="edgeStyle=orthogonalEdgeStyle;rounded=0;orthogonalLoop=1;jettySize=auto;html=1;" edge="1" parent="WIyWlLk6GJQsqaUBKTNV-1" source="NiWgMLImOr7ihuLmJWnc-98" target="NiWgMLImOr7ihuLmJWnc-99">
          <mxGeometry relative="1" as="geometry" />
        </mxCell>
        <mxCell id="NiWgMLImOr7ihuLmJWnc-98" value="" style="verticalLabelPosition=bottom;verticalAlign=top;html=1;shape=mxgraph.flowchart.parallel_mode;pointerEvents=1" vertex="1" parent="WIyWlLk6GJQsqaUBKTNV-1">
          <mxGeometry x="313" y="1270" width="95" height="40" as="geometry" />
        </mxCell>
        <mxCell id="NiWgMLImOr7ihuLmJWnc-104" value="" style="edgeStyle=orthogonalEdgeStyle;rounded=0;orthogonalLoop=1;jettySize=auto;html=1;" edge="1" parent="WIyWlLk6GJQsqaUBKTNV-1" source="NiWgMLImOr7ihuLmJWnc-99" target="NiWgMLImOr7ihuLmJWnc-103">
          <mxGeometry relative="1" as="geometry" />
        </mxCell>
        <mxCell id="NiWgMLImOr7ihuLmJWnc-99" value="收款，用邮件找财务开发票，发票给销售or给客户" style="rounded=1;whiteSpace=wrap;html=1;verticalAlign=top;" vertex="1" parent="WIyWlLk6GJQsqaUBKTNV-1">
          <mxGeometry x="420" y="1330" width="120" height="60" as="geometry" />
        </mxCell>
        <mxCell id="NiWgMLImOr7ihuLmJWnc-106" value="" style="edgeStyle=orthogonalEdgeStyle;rounded=0;orthogonalLoop=1;jettySize=auto;html=1;" edge="1" parent="WIyWlLk6GJQsqaUBKTNV-1" source="NiWgMLImOr7ihuLmJWnc-101" target="NiWgMLImOr7ihuLmJWnc-105">
          <mxGeometry relative="1" as="geometry" />
        </mxCell>
        <mxCell id="NiWgMLImOr7ihuLmJWnc-101" value="财务付款" style="rounded=1;whiteSpace=wrap;html=1;verticalAlign=top;" vertex="1" parent="WIyWlLk6GJQsqaUBKTNV-1">
          <mxGeometry x="183.75" y="1410" width="120" height="60" as="geometry" />
        </mxCell>
        <mxCell id="NiWgMLImOr7ihuLmJWnc-103" value="盖章运单给客户" style="rounded=1;whiteSpace=wrap;html=1;verticalAlign=top;" vertex="1" parent="WIyWlLk6GJQsqaUBKTNV-1">
          <mxGeometry x="420" y="1470" width="120" height="60" as="geometry" />
        </mxCell>
        <mxCell id="NiWgMLImOr7ihuLmJWnc-105" value="付款证明给车站代理" style="whiteSpace=wrap;html=1;verticalAlign=top;rounded=1;" vertex="1" parent="WIyWlLk6GJQsqaUBKTNV-1">
          <mxGeometry x="183.75" y="1500" width="120" height="60" as="geometry" />
        </mxCell>
        <mxCell id="NiWgMLImOr7ihuLmJWnc-111" value="" style="edgeStyle=orthogonalEdgeStyle;rounded=0;orthogonalLoop=1;jettySize=auto;html=1;" edge="1" parent="WIyWlLk6GJQsqaUBKTNV-1" source="NiWgMLImOr7ihuLmJWnc-107" target="NiWgMLImOr7ihuLmJWnc-110">
          <mxGeometry relative="1" as="geometry" />
        </mxCell>
        <mxCell id="NiWgMLImOr7ihuLmJWnc-107" value="" style="verticalLabelPosition=bottom;verticalAlign=top;html=1;shape=mxgraph.flowchart.parallel_mode;pointerEvents=1" vertex="1" parent="WIyWlLk6GJQsqaUBKTNV-1">
          <mxGeometry x="313" y="1570" width="95" height="40" as="geometry" />
        </mxCell>
        <mxCell id="NiWgMLImOr7ihuLmJWnc-108" style="edgeStyle=orthogonalEdgeStyle;rounded=0;orthogonalLoop=1;jettySize=auto;html=1;exitX=0.5;exitY=1;exitDx=0;exitDy=0;entryX=1;entryY=0.5;entryDx=0;entryDy=0;entryPerimeter=0;" edge="1" parent="WIyWlLk6GJQsqaUBKTNV-1" source="NiWgMLImOr7ihuLmJWnc-103" target="NiWgMLImOr7ihuLmJWnc-107">
          <mxGeometry relative="1" as="geometry" />
        </mxCell>
        <mxCell id="NiWgMLImOr7ihuLmJWnc-109" style="edgeStyle=orthogonalEdgeStyle;rounded=0;orthogonalLoop=1;jettySize=auto;html=1;entryX=0;entryY=0.5;entryDx=0;entryDy=0;entryPerimeter=0;" edge="1" parent="WIyWlLk6GJQsqaUBKTNV-1" source="NiWgMLImOr7ihuLmJWnc-105" target="NiWgMLImOr7ihuLmJWnc-107">
          <mxGeometry relative="1" as="geometry">
            <Array as="points">
              <mxPoint x="240" y="1590" />
            </Array>
          </mxGeometry>
        </mxCell>
        <mxCell id="NiWgMLImOr7ihuLmJWnc-132" style="edgeStyle=orthogonalEdgeStyle;rounded=0;orthogonalLoop=1;jettySize=auto;html=1;exitX=0.5;exitY=1;exitDx=0;exitDy=0;" edge="1" parent="WIyWlLk6GJQsqaUBKTNV-1" source="NiWgMLImOr7ihuLmJWnc-110" target="NiWgMLImOr7ihuLmJWnc-112">
          <mxGeometry relative="1" as="geometry" />
        </mxCell>
        <mxCell id="NiWgMLImOr7ihuLmJWnc-110" value="G3更新费用信息" style="rounded=1;whiteSpace=wrap;html=1;verticalAlign=top;" vertex="1" parent="WIyWlLk6GJQsqaUBKTNV-1">
          <mxGeometry x="300" y="1640" width="120" height="60" as="geometry" />
        </mxCell>
        <mxCell id="NiWgMLImOr7ihuLmJWnc-123" style="edgeStyle=orthogonalEdgeStyle;rounded=0;orthogonalLoop=1;jettySize=auto;html=1;exitX=0.5;exitY=1;exitDx=0;exitDy=0;exitPerimeter=0;" edge="1" parent="WIyWlLk6GJQsqaUBKTNV-1" source="NiWgMLImOr7ihuLmJWnc-112" target="NiWgMLImOr7ihuLmJWnc-121">
          <mxGeometry relative="1" as="geometry" />
        </mxCell>
        <mxCell id="NiWgMLImOr7ihuLmJWnc-112" value="" style="verticalLabelPosition=bottom;verticalAlign=top;html=1;shape=mxgraph.flowchart.parallel_mode;pointerEvents=1" vertex="1" parent="WIyWlLk6GJQsqaUBKTNV-1">
          <mxGeometry x="316.75" y="1730" width="87.5" height="40" as="geometry" />
        </mxCell>
        <mxCell id="NiWgMLImOr7ihuLmJWnc-160" value="" style="edgeStyle=orthogonalEdgeStyle;rounded=0;orthogonalLoop=1;jettySize=auto;html=1;" edge="1" parent="WIyWlLk6GJQsqaUBKTNV-1" source="NiWgMLImOr7ihuLmJWnc-115" target="NiWgMLImOr7ihuLmJWnc-159">
          <mxGeometry relative="1" as="geometry" />
        </mxCell>
        <mxCell id="NiWgMLImOr7ihuLmJWnc-115" value="运单，报关，随车资料给口岸代理，运单随车给后程代理" style="rounded=1;whiteSpace=wrap;html=1;verticalAlign=top;" vertex="1" parent="WIyWlLk6GJQsqaUBKTNV-1">
          <mxGeometry x="294" y="1870" width="120" height="60" as="geometry" />
        </mxCell>
        <mxCell id="NiWgMLImOr7ihuLmJWnc-119" value="" style="edgeStyle=elbowEdgeStyle;elbow=horizontal;endArrow=classic;html=1;curved=0;rounded=0;endSize=8;startSize=8;entryX=0;entryY=0.5;entryDx=0;entryDy=0;entryPerimeter=0;" edge="1" parent="WIyWlLk6GJQsqaUBKTNV-1" target="NiWgMLImOr7ihuLmJWnc-112">
          <mxGeometry width="50" height="50" relative="1" as="geometry">
            <mxPoint x="100" y="1240" as="sourcePoint" />
            <mxPoint x="197.5" y="1753" as="targetPoint" />
            <Array as="points">
              <mxPoint x="100" y="1250" />
              <mxPoint x="107.5" y="1553" />
              <mxPoint x="97.5" y="1323" />
              <mxPoint x="47.5" y="1793" />
            </Array>
          </mxGeometry>
        </mxCell>
        <mxCell id="NiWgMLImOr7ihuLmJWnc-121" value="" style="verticalLabelPosition=bottom;verticalAlign=top;html=1;shape=mxgraph.flowchart.parallel_mode;pointerEvents=1" vertex="1" parent="WIyWlLk6GJQsqaUBKTNV-1">
          <mxGeometry x="313" y="1800" width="95" height="40" as="geometry" />
        </mxCell>
        <mxCell id="NiWgMLImOr7ihuLmJWnc-122" value="" style="edgeStyle=elbowEdgeStyle;elbow=horizontal;endArrow=classic;html=1;curved=0;rounded=0;endSize=8;startSize=8;exitX=0.625;exitY=0.99;exitDx=0;exitDy=0;exitPerimeter=0;" edge="1" parent="WIyWlLk6GJQsqaUBKTNV-1" source="NiWgMLImOr7ihuLmJWnc-21">
          <mxGeometry width="50" height="50" relative="1" as="geometry">
            <mxPoint x="131" y="2160" as="sourcePoint" />
            <mxPoint x="290" y="1890" as="targetPoint" />
            <Array as="points">
              <mxPoint x="1" y="2070" />
              <mxPoint x="1" y="2130" />
            </Array>
          </mxGeometry>
        </mxCell>
        <mxCell id="NiWgMLImOr7ihuLmJWnc-125" style="edgeStyle=orthogonalEdgeStyle;rounded=0;orthogonalLoop=1;jettySize=auto;html=1;entryX=0.539;entryY=0.042;entryDx=0;entryDy=0;entryPerimeter=0;" edge="1" parent="WIyWlLk6GJQsqaUBKTNV-1" source="NiWgMLImOr7ihuLmJWnc-121" target="NiWgMLImOr7ihuLmJWnc-115">
          <mxGeometry relative="1" as="geometry" />
        </mxCell>
        <mxCell id="NiWgMLImOr7ihuLmJWnc-136" value="" style="edgeStyle=orthogonalEdgeStyle;rounded=0;orthogonalLoop=1;jettySize=auto;html=1;" edge="1" parent="WIyWlLk6GJQsqaUBKTNV-1" source="NiWgMLImOr7ihuLmJWnc-133" target="NiWgMLImOr7ihuLmJWnc-135">
          <mxGeometry relative="1" as="geometry" />
        </mxCell>
        <mxCell id="NiWgMLImOr7ihuLmJWnc-133" value="销售通知有货" style="rounded=1;whiteSpace=wrap;html=1;glass=0;strokeWidth=1;shadow=0;" vertex="1" parent="WIyWlLk6GJQsqaUBKTNV-1">
          <mxGeometry x="90.5" y="-150" width="120" height="60" as="geometry" />
        </mxCell>
        <mxCell id="NiWgMLImOr7ihuLmJWnc-137" value="" style="edgeStyle=orthogonalEdgeStyle;rounded=0;orthogonalLoop=1;jettySize=auto;html=1;" edge="1" parent="WIyWlLk6GJQsqaUBKTNV-1" source="NiWgMLImOr7ihuLmJWnc-135" target="NiWgMLImOr7ihuLmJWnc-37">
          <mxGeometry relative="1" as="geometry" />
        </mxCell>
        <mxCell id="NiWgMLImOr7ihuLmJWnc-138" value="" style="edgeStyle=orthogonalEdgeStyle;rounded=0;orthogonalLoop=1;jettySize=auto;html=1;" edge="1" parent="WIyWlLk6GJQsqaUBKTNV-1" source="NiWgMLImOr7ihuLmJWnc-135" target="NiWgMLImOr7ihuLmJWnc-37">
          <mxGeometry relative="1" as="geometry" />
        </mxCell>
        <mxCell id="NiWgMLImOr7ihuLmJWnc-140" value="" style="edgeStyle=orthogonalEdgeStyle;rounded=0;orthogonalLoop=1;jettySize=auto;html=1;" edge="1" parent="WIyWlLk6GJQsqaUBKTNV-1" source="NiWgMLImOr7ihuLmJWnc-135" target="NiWgMLImOr7ihuLmJWnc-139">
          <mxGeometry relative="1" as="geometry" />
        </mxCell>
        <mxCell id="NiWgMLImOr7ihuLmJWnc-135" value="交付客户托书" style="rounded=1;whiteSpace=wrap;html=1;glass=0;strokeWidth=1;shadow=0;" vertex="1" parent="WIyWlLk6GJQsqaUBKTNV-1">
          <mxGeometry x="90.5" y="-70" width="120" height="60" as="geometry" />
        </mxCell>
        <mxCell id="NiWgMLImOr7ihuLmJWnc-139" value="客户返回托书" style="rounded=1;whiteSpace=wrap;html=1;glass=0;strokeWidth=1;shadow=0;" vertex="1" parent="WIyWlLk6GJQsqaUBKTNV-1">
          <mxGeometry x="90" width="120" height="60" as="geometry" />
        </mxCell>
        <mxCell id="NiWgMLImOr7ihuLmJWnc-149" style="edgeStyle=orthogonalEdgeStyle;rounded=0;orthogonalLoop=1;jettySize=auto;html=1;entryX=1;entryY=0.5;entryDx=0;entryDy=0;entryPerimeter=0;" edge="1" parent="WIyWlLk6GJQsqaUBKTNV-1" source="NiWgMLImOr7ihuLmJWnc-6" target="NiWgMLImOr7ihuLmJWnc-82">
          <mxGeometry relative="1" as="geometry" />
        </mxCell>
        <mxCell id="NiWgMLImOr7ihuLmJWnc-150" value="&amp;nbsp;是否直接对装？" style="strokeWidth=2;html=1;shape=mxgraph.flowchart.decision;whiteSpace=wrap;" vertex="1" parent="WIyWlLk6GJQsqaUBKTNV-1">
          <mxGeometry x="204" y="180" width="100" height="100" as="geometry" />
        </mxCell>
        <mxCell id="NiWgMLImOr7ihuLmJWnc-151" value="货源地是否很远？" style="strokeWidth=2;html=1;shape=mxgraph.flowchart.decision;whiteSpace=wrap;" vertex="1" parent="WIyWlLk6GJQsqaUBKTNV-1">
          <mxGeometry x="308" y="180" width="100" height="100" as="geometry" />
        </mxCell>
        <mxCell id="NiWgMLImOr7ihuLmJWnc-154" style="edgeStyle=orthogonalEdgeStyle;rounded=0;orthogonalLoop=1;jettySize=auto;html=1;entryX=0.994;entryY=0.588;entryDx=0;entryDy=0;entryPerimeter=0;" edge="1" parent="WIyWlLk6GJQsqaUBKTNV-1" source="NiWgMLImOr7ihuLmJWnc-68" target="NiWgMLImOr7ihuLmJWnc-83">
          <mxGeometry relative="1" as="geometry" />
        </mxCell>
        <mxCell id="NiWgMLImOr7ihuLmJWnc-155" value="老客户or新客户" style="strokeWidth=2;html=1;shape=mxgraph.flowchart.decision;whiteSpace=wrap;" vertex="1" parent="WIyWlLk6GJQsqaUBKTNV-1">
          <mxGeometry x="430" y="1370" width="100" height="100" as="geometry" />
        </mxCell>
        <mxCell id="NiWgMLImOr7ihuLmJWnc-156" value="是否需要装箱方案，影响装车，提前给站上审核" style="strokeWidth=2;html=1;shape=mxgraph.flowchart.decision;whiteSpace=wrap;" vertex="1" parent="WIyWlLk6GJQsqaUBKTNV-1">
          <mxGeometry x="250" y="-170" width="100" height="100" as="geometry" />
        </mxCell>
        <mxCell id="NiWgMLImOr7ihuLmJWnc-162" value="" style="edgeStyle=orthogonalEdgeStyle;rounded=0;orthogonalLoop=1;jettySize=auto;html=1;" edge="1" parent="WIyWlLk6GJQsqaUBKTNV-1" source="NiWgMLImOr7ihuLmJWnc-159" target="NiWgMLImOr7ihuLmJWnc-161">
          <mxGeometry relative="1" as="geometry" />
        </mxCell>
        <mxCell id="NiWgMLImOr7ihuLmJWnc-159" value="口岸出预录单，客户确认" style="rounded=1;whiteSpace=wrap;html=1;verticalAlign=top;" vertex="1" parent="WIyWlLk6GJQsqaUBKTNV-1">
          <mxGeometry x="294" y="2010" width="120" height="60" as="geometry" />
        </mxCell>
        <mxCell id="NiWgMLImOr7ihuLmJWnc-164" value="" style="edgeStyle=orthogonalEdgeStyle;rounded=0;orthogonalLoop=1;jettySize=auto;html=1;" edge="1" parent="WIyWlLk6GJQsqaUBKTNV-1" source="NiWgMLImOr7ihuLmJWnc-161" target="NiWgMLImOr7ihuLmJWnc-163">
          <mxGeometry relative="1" as="geometry" />
        </mxCell>
        <mxCell id="NiWgMLImOr7ihuLmJWnc-161" value="车到口岸，报关单，放行单，随附随车" style="rounded=1;whiteSpace=wrap;html=1;verticalAlign=top;" vertex="1" parent="WIyWlLk6GJQsqaUBKTNV-1">
          <mxGeometry x="294" y="2150" width="120" height="60" as="geometry" />
        </mxCell>
        <mxCell id="NiWgMLImOr7ihuLmJWnc-168" value="" style="edgeStyle=orthogonalEdgeStyle;rounded=0;orthogonalLoop=1;jettySize=auto;html=1;" edge="1" parent="WIyWlLk6GJQsqaUBKTNV-1" source="NiWgMLImOr7ihuLmJWnc-163" target="NiWgMLImOr7ihuLmJWnc-167">
          <mxGeometry relative="1" as="geometry" />
        </mxCell>
        <mxCell id="NiWgMLImOr7ihuLmJWnc-163" value="到达口岸，编组，出境，通知后程代理" style="rounded=1;whiteSpace=wrap;html=1;verticalAlign=top;" vertex="1" parent="WIyWlLk6GJQsqaUBKTNV-1">
          <mxGeometry x="294" y="2290" width="120" height="60" as="geometry" />
        </mxCell>
        <mxCell id="NiWgMLImOr7ihuLmJWnc-165" value="是否全程，是否含口岸代理" style="strokeWidth=2;html=1;shape=mxgraph.flowchart.decision;whiteSpace=wrap;" vertex="1" parent="WIyWlLk6GJQsqaUBKTNV-1">
          <mxGeometry x="440" y="1850" width="100" height="100" as="geometry" />
        </mxCell>
        <mxCell id="NiWgMLImOr7ihuLmJWnc-166" value="如果我们做后程，需要申请代码" style="strokeWidth=2;html=1;shape=mxgraph.flowchart.decision;whiteSpace=wrap;" vertex="1" parent="WIyWlLk6GJQsqaUBKTNV-1">
          <mxGeometry x="250" y="-20" width="100" height="100" as="geometry" />
        </mxCell>
        <mxCell id="NiWgMLImOr7ihuLmJWnc-167" value="出境，后程代理接车，换装车皮，换装照片" style="rounded=1;whiteSpace=wrap;html=1;verticalAlign=top;" vertex="1" parent="WIyWlLk6GJQsqaUBKTNV-1">
          <mxGeometry x="294" y="2430" width="120" height="60" as="geometry" />
        </mxCell>
        <mxCell id="NiWgMLImOr7ihuLmJWnc-169" value="私人车板，返空指令？" style="strokeWidth=2;html=1;shape=mxgraph.flowchart.decision;whiteSpace=wrap;" vertex="1" parent="WIyWlLk6GJQsqaUBKTNV-1">
          <mxGeometry x="183.75" y="2410" width="100" height="100" as="geometry" />
        </mxCell>
      </root>
    </mxGraphModel>
  </diagram>
</mxfile>
